Patient4_TMGait_0pt3_03_left_21_EMG.mot
version=1
nRows=40
nColumns=33
inDegrees=no
endheader
time	1LAddLong	2LGlutMax	3LGlutMed	4LIliopsoas	5LSemiMemb	6LBicFemLong	7LRecFem	8LVastMed	9LVastLat	10LGasMed	11LTibAnt	12lTibPost	13LPeroneusLong	14LSol	15LExtDigLong	16LFlexDigLong	17RAddLong	18RGlutMax	19RGlutMed	20RIliopsoas	21RSemiMemb	22RBicFemLong	23RRecFem	24RVastMed	25RVastLat	26RGasMed	27RTibAnt	28RTibPost	29RPeroneusLong	30RSol	31RExtDigLong	32RFlexDigLong
37.12	0.000916	-0.053406	0.04837	-0.009003	0.15869	0.052338	-0.21179	0.011902	-0.070801	0.020752	0.007477	-0.00946	-0.088959	-0.00885	0.006866	-0.014801	-0.010986	-0.30975	0.012512	-0.12466	-0.00946	-0.086823	-0.092316	0.019379	0.023499	-0.029602	0.006714	0.001373	-0.11414	0.2713	-0.002136	-0.022125
37.121	-0.028534	-0.044403	0.07019	-0.02121	0.084686	-0.06546	-0.17548	0.029907	-0.2121	0.013428	-0.002594	-0.012512	-0.016327	-0.063324	0.008087	-0.014496	-0.021515	-0.3389	-0.038147	0.10864	-0.007782	-0.034485	-0.081024	-0.025635	0.00351	-0.0383	0.010986	-0.00824	0.054932	0.21332	-0.002747	-0.023193
37.122	-0.019684	-0.011902	0.084381	-0.012054	0.007782	-0.3305	-0.17059	0.036316	-0.17166	-0.015411	-0.009308	-0.009766	0.014954	-0.083618	-0.016479	-0.013733	-0.011597	-0.31937	-0.045319	0.29862	-0.046082	0.085297	-0.060425	-0.014801	0.006714	-0.031433	0.001373	-0.014801	0.075989	0.26779	0	-0.014648
37.123	0.015106	-0.005951	0.057373	0.010529	-0.090637	-0.37949	-0.22079	0.007782	-0.13153	-0.01236	0.00412	-0.00351	0.071869	-0.009155	-0.021057	-0.000916	-0.024719	-0.30273	0.048676	0.36041	-0.079498	0.20935	-0.011139	-0.030518	0.004272	-0.022278	0.017242	-0.001678	0.022736	0.38742	-0.003662	-0.018158
37.124	0.031586	-0.00412	-0.024109	0.010071	-0.016022	-0.28854	-0.1416	-0.017242	-0.10101	-0.000763	0.025482	-0.008087	0.062103	0.04776	-0.001831	-0.007629	-0.003052	-0.2681	0.085907	0.25833	0.00473	0.16708	-0.077057	-0.065002	0.00885	0.001221	-0.055084	0.005646	0.22446	0.47775	-0.000916	-0.006104
37.125	0.038147	-0.06134	-0.060577	-0.000305	0.080872	-0.12955	0.093536	-0.043488	-0.082245	-0.013428	0.012207	0.001373	0.11932	0.039825	-0.000916	-0.016022	0.001984	-0.25177	0.14893	0.039825	0.042114	0.1416	-0.083923	0.000305	0.011597	0.01297	-0.046844	0.007477	0.27817	0.24582	-0.003662	-0.009308
37.126	0.023956	-0.087433	-0.055084	-0.010071	0.087738	0.005798	0.11322	-0.036316	0.091248	0.005341	0.009308	-0.001984	0.069275	0.009003	0.005951	-0.011444	0.009918	-0.21423	-0.16892	-0.006714	0.12909	0.064697	-0.08316	0.029602	0.02655	0.021362	-0.023804	0.011292	0.18021	0.020294	-0.001678	-0.002594
37.127	0.013275	-0.086823	-0.04364	-0.001221	0.078278	0.053558	0.066223	-0.027466	0.20493	0.021515	0.027618	0.004425	-0.076294	0.009918	0.008545	-0.005188	-0.002441	-0.23132	-0.17914	-0.07309	0.10696	-0.004883	-0.11215	0.021057	0.010681	0.01297	-0.003967	0.001068	0.11398	-0.24674	-0.001373	-0.009155
37.128	0.003204	-0.057831	-0.062866	0.00473	0.034485	0.052948	0.12421	-0.016937	0.15045	-0.007935	0.023804	0.004883	0.00351	0.014954	0.003967	-0.01709	0.005188	-0.19073	-0.19898	-0.080414	0.06546	0.009003	-0.062561	0.030365	0.016327	-0.000916	0.010529	-0.000763	0.066071	-0.25085	-0.00351	-0.005341
37.129	0.004425	-0.099182	-0.091858	0.013123	0.030212	0.030212	0.041351	-0.012207	0.15915	0.043793	0.028534	0.01297	0.079193	0.02655	0.007782	-0.008545	0.026398	-0.18707	-0.095062	-0.19608	0.057068	0.034943	-0.063324	-0.036163	-0.000458	0.014801	0.024109	0	0.014191	-0.1532	-0.002441	-0.001068
37.13	0.022278	-0.12314	-0.1059	-0.00061	0.025787	0.01358	-0.017548	-0.019379	0.089874	0.03891	0.012665	0.003204	-0.028534	0.002441	-0.000153	-0.00473	0.014954	-0.16678	-0.18173	0.007324	0.070648	0.0737	-0.05661	-0.035248	-0.007477	0.00061	0.030823	-0.001831	-0.018768	-0.083618	0.001831	-0.006714
37.131	0.024261	-0.096741	-0.121	0.007782	0.002289	0.043793	0.013885	-0.013275	0.03952	-0.014038	-0.001068	0.001068	0.14374	-0.021667	-0.003357	-0.005341	0.01236	-0.1236	-0.27573	0.18326	0.039063	0.094147	-0.048523	-0.054626	0.008545	0	0.035095	-0.006866	-0.067139	-0.20645	-0.002747	-0.009155
37.132	0.013123	-0.12909	-0.10407	0.007172	-0.005798	0.07843	0.031891	-0.009308	-0.039673	-0.014038	0.001984	0.014191	0.15427	-0.035248	0.005341	0.000153	0.003204	-0.17532	-0.10803	0.064697	-0.15671	0.14404	-0.079193	-0.043945	-0.002136	0.007019	0.042419	-0.004883	-0.087433	-0.31906	-0.003052	-0.009003
37.133	0.010223	-0.072784	-0.062408	0.00885	-0.006256	0.09613	-0.009766	0.006409	-0.017242	-0.037231	0.021515	0.069733	0.2475	0.044098	0.052795	-0.011749	-0.000458	-0.13306	0.10788	0.02594	-0.12955	0.10071	-0.10254	-0.037842	0.005951	0.00824	0.049133	-0.009308	-0.070648	-0.35675	-0.000153	-0.01297
37.134	-0.000763	-0.028839	-0.053711	0.009766	-0.024567	0.1265	0.009308	-0.002747	0.041962	-0.058136	0.003662	0.054779	0.0383	0.15579	0.065308	0.00351	-0.010681	-0.1294	-0.029602	0.010986	0.093231	0.0354	-0.081329	-0.037537	0.000153	0.00061	0.064087	-0.011292	-0.053864	-0.38086	0.004578	-0.009766
37.135	-0.011597	-0.033417	-0.044403	0.007172	-0.028992	0.10895	0.036774	0.006409	0.097198	-0.066376	-0.018768	-0.005798	-0.39856	0.17532	0.06958	-0.015259	-0.003357	-0.14893	-0.083008	-0.023499	0.11093	-0.005646	-0.067902	0.001678	0.00885	0.003204	0.048828	-0.001373	0.016022	-0.48386	0.002136	-0.024414
37.136	-0.009003	-0.01236	-0.040436	0.014648	-0.060272	0.15366	0.020905	0.007172	0.058441	0.043793	-0.014191	0.006256	-0.63904	0.11673	-0.027924	-0.016022	0.018921	-0.079346	-0.075226	0.014191	0.02655	-0.040436	-0.041656	-0.012665	-0.002136	0.009155	0.011292	0.000916	0.1889	-0.51758	0.001831	-0.017242
37.137	-0.010681	0.030518	-0.033722	0.011292	-0.088043	0.15717	0.010986	0.003967	0.023499	0.14618	-0.019226	-0.000916	0.37384	0.034943	-0.14221	-0.056458	0.026703	-0.11246	-0.076599	0.15549	-0.056152	-0.077209	-0.034943	-0.032501	-0.007935	0.006866	-0.028992	-0.001373	0.20081	-0.44449	-0.003967	-0.02121
37.138	-0.006561	0.044403	-0.039368	-0.011597	-0.085754	0.22705	0.008392	0.005951	0.018921	0.19165	-0.015564	0.003357	0.26428	0.072021	-0.079041	0.027924	0.002899	-0.159	0.026703	0.11765	-0.088348	-0.04364	-0.075226	-0.013275	0.003662	-0.009766	-0.00946	0.009613	-0.018158	-0.25833	-0.000305	-0.023193
37.139	-0.005798	0.091858	-0.026245	0.016327	-0.077362	0.22064	0.010529	0.009766	0.020905	0.26794	0.011902	0.00946	0.16174	0.074005	0.008392	0.038452	-0.019379	-0.1149	0.027008	-0.032806	0.1088	-0.047302	-0.054169	-0.031433	-0.007172	-0.010834	0.046082	0.007477	-0.19287	-0.032501	-0.002136	-0.018158
37.14	-0.014343	0.092468	0.02594	0.005646	0.018005	0.1062	0.024109	0.011597	0.014954	0.23193	0.015411	-0.010681	0.38818	-0.16663	-0.014648	-0.16007	0.014648	-0.095062	-0.013885	-0.05188	0.071869	-0.036774	-0.037689	-0.007019	0.006104	-0.012665	0.039825	0.005035	-0.30228	-0.15854	-0.001984	-0.015259
37.141	-0.023499	0.12604	-0.011292	0.002289	0.003967	0.058441	0.029297	0.012207	0.009308	0.046082	0.028534	0.024872	0.41382	-0.32715	-0.069885	0.22766	0.02533	-0.13977	0.004272	-0.028381	0.02594	0.012817	-0.033875	-0.043945	0.004883	0.00061	-0.006866	-0.012512	-0.045013	-0.32044	-0.002289	-0.017242
37.142	-0.029297	0.14267	-0.015869	0.018311	-0.068665	0.011292	0.024567	0.009918	0.015259	-0.088348	0.012665	-0.005798	0.59509	-0.21179	0.060577	0.12177	0.041046	-0.093079	0.026245	-0.033112	0.009003	0.009003	-0.030975	-0.036163	0.022736	0.006256	-0.029755	-0.1593	0.37628	-0.20157	-0.002441	-0.017242
37.143	-0.022125	0.13504	-0.026855	0.01236	-0.10529	-0.059204	0.015869	0.009918	0.029602	-0.10513	-0.004883	-0.00824	-0.18707	0.071259	0.10742	-0.16342	0.061035	-0.044556	-0.19882	-0.03891	0.019836	0.018158	-0.023193	-0.055237	0.008545	0.010071	0.004425	-0.071716	0.36118	0.23727	0.000305	-0.022888
37.144	-0.005951	0.1152	-0.013885	0.019684	-0.082092	-0.13565	0.03067	0.010986	0.018158	-0.18707	-0.005646	-0.007019	-1.2534	0.045624	0.14145	-0.090332	0.059052	-0.079041	-0.18219	0.041351	-0.021973	0.006104	-0.020294	-0.057831	0.016937	0.013123	0.028687	-0.33341	0.008392	0.37979	-0.002899	-0.012207
37.145	0.016327	0.060425	0.007629	0.0177	-0.08255	-0.23224	0.016022	0.006561	0.009766	-0.33569	0.016479	-0.003052	-1.2218	-0.12375	0.022278	-0.024414	-0.015717	-0.11993	-0.095062	0.015869	-0.076294	0.067902	-0.003662	0.005341	0.009155	0.007629	0.00946	0.29831	-0.15793	0.31174	0.005493	-0.009155
37.146	0.033264	-0.032501	-0.023651	0.007629	0.085754	-0.20432	0.060425	0.008392	0.002747	-0.26321	0.007629	0.000305	-0.48355	-0.075989	-0.24506	-0.03006	-0.026245	-0.088806	0.10315	-0.001068	-0.046082	0.070648	-0.008392	-0.01236	0.006866	-0.011139	0.018463	0.23178	-0.32623	0.18875	-0.007324	-0.006714
37.147	0.022888	-0.087891	-0.046692	0.012512	0.15152	-0.1329	0.088196	0.013733	-0.000153	-0.16403	0.007782	-0.009003	0.077209	0.079193	-0.24796	-0.026093	-0.009613	-0.042114	0.24857	-0.002594	-0.002899	0.04303	0.011749	-0.018158	0.014496	-0.033264	-0.000458	0.098419	-0.18799	0.26154	-0.002289	-0.002441
37.148	0.003662	-0.065613	-0.063171	0.011444	0.04425	-0.063171	0.084839	0.007019	0.009613	-0.096893	0.012207	0.005493	0.24323	0.00351	-0.085449	0.005035	-0.01358	-0.054321	0.014191	-0.03479	-0.024567	0.00824	-0.003204	-0.042877	0.024872	-0.015259	-0.013885	-0.11307	0.036163	0.35889	-0.000153	-0.003052
37.149	0.00351	-0.07843	0.018921	-0.002136	-0.010071	0.008087	0.084229	0.016632	0.014343	-0.071564	-0.016632	-0.003204	0.23377	-0.077667	-0.018158	0.001526	0.004883	-0.03952	-0.14984	-0.022125	0.046082	-0.022278	-0.054169	-0.026855	0.027313	-0.012207	-0.019073	-0.32684	0.1564	0.26794	-0.001221	0.004883
37.15	0.006561	-0.081024	-0.005798	0.004883	-0.07019	-0.079651	0.046539	0.004578	0.029297	-0.10117	-0.001221	0.003967	0.27557	-0.066681	0.08316	0.003204	0.000916	0.000153	-0.32471	-0.04303	0.031281	0.011292	-0.034637	-0.055847	0.016785	0.005951	0.001373	0.11108	0.085602	0.18631	-0.003662	-0.004578
37.151	0.016174	-0.049591	-0.02243	-0.010223	-0.048676	-0.17624	0.017395	0.002289	0.028992	0.006561	0.022736	-0.002289	0.15396	-0.19974	0.059204	-0.001068	0.012665	0.036926	-0.2945	-0.024261	0.008545	0.011139	-0.014496	-0.058441	0.026093	-0.014496	-0.002747	0.23789	-0.075684	0.33478	0.001221	-0.00824
37.152	0.015259	-0.038605	0.088959	0.008087	0.08194	-0.1001	-0.009918	0.001373	0.033264	0.047455	0.003967	0.000153	0.17578	-0.13596	0.096283	0.008698	0.029602	0.058899	-0.052948	0.032501	0.01236	0.041351	-0.014954	-0.046844	0.015869	-0.024567	0.020142	0.07843	-0.18768	0.16922	-0.009155	-0.018311
37.153	0.006866	-0.017853	0.01709	0.019836	0.12314	0.035095	0.007629	0.005798	0.003052	0.15076	-0.001831	-0.001984	0.085297	-0.10696	0.027161	-0.006104	0.027008	0.005188	-0.16037	0.002136	0.023956	0.031586	-0.016174	-0.05127	0.000305	-0.010071	0.027618	-0.033722	0.005341	0.10132	-0.002441	-0.016174
37.154	-0.006104	0.069275	0.046387	0.005341	0.075836	0.14038	0.032654	0.005341	-0.02243	0.077057	0.009308	-0.003967	-0.1326	-0.097809	-0.015564	-0.005188	0.013733	0.007019	-0.08728	0.00946	0.0177	0.032043	-0.013275	-0.051117	0.020599	-0.005798	0.010071	0.0177	0.57892	-0.14572	-0.002441	-0.009613
37.155	0.003204	0.17593	0.13962	-0.008698	0.031891	0.19379	-0.004272	0.003967	-0.006409	0.047607	0.010071	-0.001831	-0.37277	-0.0914	-0.012817	0.002136	0.003815	0.04715	-0.033875	0.023041	-0.010529	0.04303	0.01358	-0.036469	0.00061	0.015259	0.003357	-0.005035	0.61203	0.017548	0.000916	0.005188
37.156	-0.008545	0.22766	0.080414	-0.007629	-0.048828	0.22369	-0.059357	0.005798	0.004272	-0.004578	-0.000916	0.00061	-0.18478	-0.17578	0.040588	-0.006256	-0.021973	0.076141	0.26032	-0.02121	-0.02594	0.055084	0.045471	-0.063324	0.027161	0.026245	-0.001678	-0.005493	0.14832	0.26627	0	0.002747
37.157	-0.001984	0.29739	0.030823	-0.009155	-0.09903	0.17853	0.023956	0.007935	0.032501	-0.002136	0.010376	0.007477	0.15976	-0.2124	0.022736	-0.000458	-0.013733	0.02121	0.035706	-0.18021	-0.030823	0.034027	0.031128	-0.038605	0.01358	0.01297	-0.000916	-0.007019	-0.18112	0.067444	-0.000763	0.000763
37.158	-0.006714	0.29892	-0.007782	0.003052	-0.05127	0.084229	0.044556	0	0.032501	-0.001526	0.006866	0.007172	0.10498	-0.15381	-0.050964	-0.005493	-0.023346	0.081635	-0.16647	-0.19226	0.046692	0.037079	0.004272	-0.044861	0.019073	0.002289	0.00412	-0.02243	-0.12711	-0.18341	0.008392	0.001068
37.159	0.000458	0.17807	-0.024414	0.013885	0.065308	-0.000916	0.047302	0.000305	0.024261	-0.024567	0.00061	0.004578	-0.0354	0.095825	-0.005493	-0.001373	-0.043945	0.023346	-0.11231	-0.090179	0.062408	0.016174	0.020294	-0.012054	0.030212	0.001068	0.013885	-0.08728	-0.20309	-0.53589	-0.001221	0.002747
